<?xml version="1.0" encoding="UTF-8"?><svg id="Layer_1" xmlns="http://www.w3.org/2000/svg" viewBox="0 0 720.8 127"><defs><style>.cls-1{fill:#027bb6;}.cls-2{fill:#fff;}.cls-3{fill:#1ba8e1;}</style></defs><rect class="cls-1" x="22.76" y="0" width="12.74" height="100"/><rect class="cls-3" y="28.42" width="12.74" height="71.59"/><g><path class="cls-2" d="M118.97,100l-7.92-18.37h-37.35l-7.92,18.37h-8.53L88.72,28.44h7.21l31.46,71.56h-8.42Zm-42.33-25.27h31.47l-15.73-36.64-15.73,36.64Z"/><path class="cls-2" d="M176.42,68.94v31.06h-8.22v-30.55c0-4.6-.9-7.95-2.69-10.05-1.79-2.1-4.65-3.15-8.58-3.15-4.53,0-8.15,1.39-10.86,4.16-2.71,2.78-4.06,6.53-4.06,11.27v28.32h-8.22V50.57h8.12v8.12c1.62-3.04,3.89-5.36,6.8-6.95,2.91-1.59,6.22-2.38,9.95-2.38,11.84,0,17.76,6.53,17.76,19.59Z"/><path class="cls-2" d="M215.6,93.81l-.41,6.5c-1.56,.27-3.25,.41-5.08,.41-5.96,0-10.44-1.56-13.45-4.67-3.01-3.11-4.52-7.44-4.52-12.99v-25.98h-9.64v-6.5h9.64v-15.02h8.22v15.02h14.01v6.5h-14.01v25.38c0,7.78,3.59,11.67,10.76,11.67,1.49,0,2.98-.1,4.47-.3Z"/><path class="cls-2" d="M268.07,68.94v31.06h-8.22v-30.55c0-4.6-.9-7.95-2.69-10.05-1.79-2.1-4.65-3.15-8.58-3.15-4.53,0-8.15,1.39-10.86,4.16-2.71,2.78-4.06,6.53-4.06,11.27v28.32h-8.22V28.44h8.22v30.04c1.62-2.98,3.87-5.24,6.75-6.8,2.88-1.56,6.17-2.33,9.9-2.33,11.84,0,17.76,6.53,17.76,19.59Z"/><path class="cls-2" d="M287,97.57c-3.55-2.1-6.29-5.09-8.22-8.98-1.93-3.89-2.89-8.41-2.89-13.55s.96-9.66,2.89-13.55c1.93-3.89,4.67-6.88,8.22-8.98,3.55-2.1,7.66-3.15,12.33-3.15s8.8,1.05,12.38,3.15c3.59,2.1,6.34,5.09,8.27,8.98,1.93,3.89,2.89,8.41,2.89,13.55s-.96,9.66-2.89,13.55c-1.93,3.89-4.69,6.89-8.27,8.98-3.59,2.1-7.71,3.15-12.38,3.15s-8.78-1.05-12.33-3.15Zm23.55-8.48c2.6-3.21,3.91-7.9,3.91-14.06s-1.32-10.67-3.96-13.96c-2.64-3.28-6.36-4.92-11.16-4.92s-8.53,1.64-11.17,4.92c-2.64,3.28-3.96,7.93-3.96,13.96s1.3,10.76,3.91,14.01c2.6,3.25,6.34,4.87,11.22,4.87s8.61-1.61,11.22-4.82Z"/><path class="cls-2" d="M331.41,100V28.44h8.22V100h-8.22Z"/><path class="cls-2" d="M359.37,97.57c-3.55-2.1-6.29-5.09-8.22-8.98-1.93-3.89-2.89-8.41-2.89-13.55s.96-9.66,2.89-13.55c1.93-3.89,4.67-6.88,8.22-8.98,3.55-2.1,7.66-3.15,12.33-3.15s8.8,1.05,12.38,3.15c3.59,2.1,6.34,5.09,8.27,8.98,1.93,3.89,2.89,8.41,2.89,13.55s-.96,9.66-2.89,13.55c-1.93,3.89-4.69,6.89-8.27,8.98-3.59,2.1-7.71,3.15-12.38,3.15s-8.78-1.05-12.33-3.15Zm23.55-8.48c2.6-3.21,3.91-7.9,3.91-14.06s-1.32-10.67-3.96-13.96c-2.64-3.28-6.36-4.92-11.16-4.92s-8.53,1.64-11.17,4.92c-2.64,3.28-3.96,7.93-3.96,13.96s1.3,10.76,3.91,14.01c2.6,3.25,6.34,4.87,11.22,4.87s8.61-1.61,11.22-4.82Z"/><path class="cls-2" d="M449.55,50.57v46.08c0,7.38-1.9,12.94-5.68,16.7-3.79,3.75-9.41,5.63-16.85,5.63-8.66,0-15.94-2.23-21.82-6.7l2.74-6.09c3.31,2.17,6.43,3.72,9.34,4.67,2.91,.95,6.16,1.42,9.74,1.42,4.74,0,8.32-1.27,10.76-3.81,2.44-2.54,3.65-6.24,3.65-11.11v-8.73c-1.42,3.18-3.6,5.62-6.55,7.31s-6.41,2.54-10.4,2.54c-4.33,0-8.17-1.01-11.52-3.04s-5.96-4.91-7.82-8.63c-1.86-3.72-2.79-8.02-2.79-12.89s.93-9.17,2.79-12.89c1.86-3.72,4.47-6.6,7.82-8.63s7.19-3.04,11.52-3.04c3.92,0,7.34,.85,10.25,2.54,2.91,1.69,5.11,4.1,6.6,7.21v-8.53h8.22Zm-12.28,36.39c2.71-3.15,4.06-7.49,4.06-13.04s-1.34-9.79-4.01-12.94c-2.67-3.15-6.41-4.72-11.22-4.72s-8.58,1.57-11.32,4.72c-2.74,3.15-4.11,7.46-4.11,12.94s1.37,9.9,4.11,13.04c2.74,3.15,6.51,4.72,11.32,4.72s8.46-1.57,11.17-4.72Z"/><path class="cls-2" d="M498.37,50.67h8.22l-29.23,67.6h-8.42l8.32-18.88-20.91-48.72h8.73l16.54,40.4,16.75-40.4Z"/></g><g><path class="cls-2" d="M571.32,28.02c-.05-.11-.16-.18-.27-.18h-10.66c-.12,0-.22,.07-.27,.18l-32.38,71.56c-.04,.09-.03,.2,.02,.29s.15,.14,.25,.14h13.19c.12,0,.23-.07,.28-.18l7.13-16.57h34.42l7.13,16.57c.05,.11,.16,.18,.28,.18h12.99c.1,0,.2-.05,.25-.14s.06-.19,.02-.29l-32.38-71.56Zm7.09,44.48h-25.28l12.64-29.39,12.64,29.39Z"/><rect class="cls-2" x="610.64" y="27.84" width="13.29" height="72.16" rx=".3" ry=".3"/><rect class="cls-2" x="637.43" y="27.84" width="13.29" height="72.16" rx=".3" ry=".3"/><path class="cls-2" d="M712.08,50c-.06-.08-.15-.14-.25-.14h-12.48c-.12,0-.23,.07-.28,.19l-14.13,34.33-13.73-34.33c-.05-.11-.16-.19-.28-.19h-13.4c-.1,0-.2,.05-.25,.14-.06,.08-.06,.19-.02,.28l20.65,47.48-8.98,20.08c-.04,.09-.03,.2,.02,.29,.06,.09,.15,.14,.25,.14h12.79c.12,0,.23-.07,.27-.18l29.84-67.8c.04-.09,.03-.2-.02-.28Z"/></g></svg>