<svg xmlns="http://www.w3.org/2000/svg" width="400" height="116.26"><path fill="#fff" fill-rule="evenodd" d="M21.951.65C.352 6.415-7.436 34.089 7.863 50.711l1.59 1.728-1.59 1.728C.909 61.722-1.662 72.206.848 82.774c5.023 21.15 32.018 29.562 48.726 15.182l2.767-2.381.964 1.037c8.264 8.894 24.507 11.133 35.719 4.924 17.324-9.593 21.056-33.004 7.553-47.369l-1.624-1.728 1.658-1.728c13.107-13.653 9.761-37.203-6.655-46.84-11.005-6.46-26.187-5.074-35.361 3.228l-2.406 2.177-1.813-1.737C43.644 1.088 31.416-1.876 21.951.65m103.754 2.907a430.478 430.478 0 0 1-2.494 6.91l-1.251 3.354h2.241c2.017 0 2.281-.102 2.628-1.016.587-1.542 4.658-1.542 5.045 0 .234.929.446 1.016 2.483 1.016 2.712 0 2.72.71-.088-7.215L131.929 0h-4.98l-1.244 3.557m11.693 3.354v6.91h4.065v-6.7l2.243 3.35 2.243 3.35H150V0h-4.031l-.119 3.133-.118 3.132-2.033-3.127-2.032-3.127-2.134-.006L137.398 0v6.911m13.822-5.082v1.83h3.252v10.162h4.471V3.659h3.252V0H151.22v1.829m12.195 5.082v6.91h4.065V8.537h4.065v5.284h4.065V0h-4.065v4.878h-4.065V0h-4.065v6.911m15.877-5.461c-5.055 4.567-2.121 12.371 4.651 12.371 5.575 0 8.901-5.472 6.357-10.458-1.905-3.736-7.848-4.769-11.008-1.913m12.984 5.461v6.91h8.131v-3.252h-3.659V0h-4.472v6.911M204.212.898c-4.321 3.07-4.092 10.125.398 12.255 6.605 3.135 13.396-3.733 9.792-9.903-1.898-3.251-7.202-4.475-10.19-2.352m15.46-.5c-2.682 1.084-4.39 5.415-3.425 8.687 2.107 7.148 13.428 6.145 13.428-1.189V5.691h-7.317v3.252l1.727.016 1.728.017-1.111.603c-2.887 1.566-5.67-1.861-3.744-4.611.668-.954 3.144-1.292 3.635-.496.254.41 5.082.591 5.082.19 0-3.41-5.897-5.924-10.003-4.264m10.003-.192c0 .113 1.097 2.278 2.439 4.81 2.072 3.912 2.439 4.92 2.439 6.705v2.1h4.065v-2.035c0-1.705.396-2.783 2.439-6.639C244.01-.427 244.006 0 241.104 0h-2.392l-.917 2.26c-1.012 2.494-1.161 2.472-2.192-.329L234.892 0h-2.609c-1.434 0-2.608.093-2.608.206m21.788.283c-.085.29-1.118 3.18-2.297 6.422a3039.384 3039.384 0 0 0-2.324 6.402c-.131.367.448.508 2.091.508 2.083 0 2.292-.084 2.526-1.016.387-1.542 4.459-1.542 5.045 0 .377.99 4.92 1.656 4.858.711-.011-.167-1.072-3.231-2.357-6.809L256.667.203l-2.526-.121c-1.805-.086-2.569.03-2.678.407m10.732 6.422v6.91h8.13v-3.252h-4.065V0h-4.065v6.911m8.943 0v6.91h8.537v-3.252h-4.065V0h-4.472v6.911m6.911-6.709c0 .11 1.097 2.245 2.439 4.743 2.108 3.925 2.439 4.835 2.439 6.709v2.167h4.065v-1.999c0-1.656.418-2.795 2.439-6.642 2.95-5.617 2.944-5.18.075-5.18h-2.365l-.969 2.337-.969 2.338-.997-2.338L283.208 0h-2.58c-1.418 0-2.579.091-2.579.202M37.781 3.401c3.849 1.114 7.884 3.347 10.652 5.891l2.125 1.955-.861 1.209c-6.666 9.361-7.134 23.284-1.112 33.043l1.863 3.019-.954.953-.954.954-3.882-1.977c-10.095-5.14-21.795-4.863-30.71.726l-2.57 1.612-2.281-2.73C-8.639 26.819 11.325-4.262 37.781 3.401m41.105-.792c21.452 3.827 30.915 29.973 16.404 45.326l-2.474 2.617-2.404-1.506c-9.376-5.877-23.487-5.53-33.195.817-1.101.72-1.132.716-2.165-.318l-1.049-1.048 1.644-2.543c6.233-9.644 6.066-23.28-.402-32.865l-1.278-1.893 1.934-1.751c6.298-5.702 14.938-8.272 22.985-6.836m106.23 1.509c2.902 1.322 2 5.638-1.179 5.638-2.544 0-3.564-3.174-1.638-5.1 1.129-1.129 1.405-1.182 2.817-.538m24.862.538c1.903 1.904.805 5.108-1.746 5.094-3.754-.021-3.54-5.867.221-6.064.29-.015.976.422 1.525.97m-80.399 3.812c-1.148.196-1.299-.154-.695-1.611l.538-1.3.472 1.388c.426 1.253.395 1.401-.315 1.523m125.043-1.456c.379 1.414.325 1.525-.739 1.525-.929 0-.967-.081-.57-1.22.506-1.451.973-1.56 1.309-.305M55.328 18.868c3.425 7.318 3.159 15.699-.741 23.373-2.277 4.479-2.354 4.51-4.076 1.608-4.884-8.232-4.751-19.508.335-28.345l1.254-2.179 1.019 1.499c.56.825 1.554 2.645 2.209 4.044M23.577 29.472v9.552h5.691v-7.317h5.285v-4.471h-5.285v-2.439h7.317v-4.878H23.577v9.553m41.464-9.296c0 .142 1.463 3.078 3.252 6.524 3.213 6.193 3.252 6.303 3.252 9.296v3.028h5.691v-2.775c0-2.69.105-2.978 3.455-9.42 1.9-3.655 3.455-6.705 3.455-6.778 0-.073-1.466-.132-3.257-.132h-3.258l-1.571 3.353-1.571 3.354L73.793 25a760.228 760.228 0 0 0-1.449-3.354l-.754-1.727h-3.274c-1.802 0-3.275.116-3.275.257m83.897 6.645c-4.042 1.633-3.205 7.883 1.165 8.702 5.701 1.07 8.985-5.234 4.38-8.408-1.071-.738-4.055-.896-5.545-.294m-26.174 19.724v15.244h8.943V50h8.943v-6.911h-8.943v-4.878h12.195v-6.91h-21.138v15.244m70.325-14.99c0 .153 1.702 3.497 3.783 7.431 6.821 12.898 6.787 12.806 6.787 18.17v4.633h8.943v-9.503l4.426-8.358c2.434-4.597 4.909-9.325 5.5-10.505l1.075-2.147-5.174.114-5.175.114-2.477 5.317-2.477 5.317-2.474-5.317-2.474-5.317-5.131-.114c-2.822-.062-5.132.012-5.132.165m35.095 6.165c-7.086 2.53-10.21 10.725-6.802 17.842 4.366 9.118 20.019 8.708 23.619-.62 4.18-10.832-5.874-21.128-16.817-17.222m63.889.022c-.894.412-2.22 1.252-2.947 1.865l-1.321 1.116v-3.325h-8.943v24.391h8.943v-5.915c0-8.246.552-9.126 5.73-9.126h2.426l-.115-4.776c-.131-5.463-.414-5.781-3.773-4.23M147.154 49.593v12.196h8.944V37.398h-8.944v12.195m11.207-11.077c.402.615 1.749 2.489 2.994 4.165 2.276 3.065 4.499 6.381 4.499 6.712 0 .265-5.674 9.147-6.775 10.605-1.367 1.812-1.416 1.791 4.039 1.791h4.987l1.335-2.429c1.77-3.218 1.699-3.215 3.869-.199l1.89 2.628h10.222l-.924-1.322a673.463 673.463 0 0 0-4.161-5.774c-3.915-5.389-3.95-4.241.322-10.575 1.955-2.9 3.73-5.598 3.943-5.996.361-.676.056-.724-4.607-.723H175l-1.423 2.642c-1.674 3.108-1.465 3.113-3.824-.102l-1.865-2.541H157.63l.731 1.118m90.423 7.724c.004 8.42.05 8.939.959 10.89 2.254 4.841 7.63 6.489 12.614 3.867l2.277-1.197v1.989h9.35V37.398h-9.35v7.466c0 8.752-.294 9.608-3.3 9.608-3.308 0-3.61-.798-3.61-9.535v-7.539h-8.944l.004 8.842m-14.223-.911c3.149 1.629 2.864 7.378-.434 8.744-3.979 1.648-6.748-4.704-3.477-7.975 1.54-1.54 2.178-1.665 3.911-.769M37.398 48.106c3.651 1.201 8.537 3.727 8.537 4.414 0 .652-7.722 4.045-10.569 4.643-6.167 1.297-13.653.035-19.248-3.244-2.475-1.451-2.345-1.734 1.755-3.804 5.831-2.944 14.095-3.794 19.525-2.009m43.695-.14c3.579.916 8.948 3.616 8.948 4.5 0 2.168-11.247 5.532-17.204 5.146-6.369-.413-15.652-4.393-13.663-5.857 5.358-3.945 14.877-5.59 21.919-3.789m-27.895 3.806.9.958-1.081.709c-1.59 1.042-3.246-.437-2.014-1.799.947-1.045 1.098-1.036 2.195.132m-36.735 5.122c9.713 4.709 21.855 4.05 30.117-1.634l1.68-1.155 1.098 1.146 1.099 1.147-1.638 2.535c-6.213 9.613-5.868 24.015.8 33.38l.887 1.245-1.36 1.403c-16.905 17.441-49.688 1.993-46.901-22.1.967-8.36 7.499-20.12 10.101-18.187.476.354 2.329 1.353 4.117 2.22m45.116.391c9.453 4.286 21.742 3.462 29.664-1.989l1.762-1.212 1.973 2.177c13.882 15.311 6.597 39.829-13.492 45.407-8.323 2.311-18.865-.198-25.36-6.034l-2.207-1.983 1.321-1.92c6.698-9.735 6.638-23.837-.145-33.756l-1.079-1.579 1.112-1.16 1.111-1.16 1.272.971c.7.533 2.53 1.54 4.068 2.238m-6.842 5.465c4.383 8.626 3.911 18.051-1.355 27.045l-1.047 1.787L50.96 89.4c-5.493-8.712-5.425-20.533.17-29.414 1.191-1.891 1.273-1.828 3.607 2.764m-26.485 2.963-1.738.37c-5.286 1.13-7.728 11.064-3.852 15.67 4.685 5.568 14.418 3.688 16.542-3.196.454-1.474-5.361-1.387-6.85.102-2.363 2.362-5.931.283-5.931-3.456 0-3.965 4.284-5.847 6.408-2.816.614.878 6.6 1.208 6.6.364 0-4.137-6.26-8.078-11.179-7.038m37.195 9.694v9.552h4.601c9.332 0 13.285-2.965 13.279-9.959-.005-6.4-3.728-9.123-12.494-9.137l-5.386-.009v9.553m10.858-3.191c2.347 2.933.464 7.459-3.103 7.459h-1.657v-9.049l1.917.216c1.471.166 2.132.485 2.843 1.374m55.402 2.406c-9.445 3.005-12.988 16.634-6.542 25.172 6.296 8.338 21.282 6.941 25.446-2.373 1.892-4.233 2.148-3.925-3.253-3.925h-4.73l-1.299 1.378c-4.25 4.506-10.267 1.295-10.2-5.443.067-6.668 5.796-9.677 10.004-5.254l1.517 1.595h9.471l-.267-1.061c-2.058-8.2-11.391-12.874-20.147-10.089m180.488 14.791v15.522l8.842-.13c10.164-.15 11.078-.399 14.99-4.084 6.588-6.207 5.831-18.879-1.42-23.765-3.381-2.279-5.375-2.684-14.18-2.881l-8.232-.185v15.523m-98.78-11.974v3.049h-2.846v7.317h2.734l.198 5.854c.31 9.135 2.12 11.219 9.743 11.219h3.585v-7.724h-1.815c-2.38 0-2.656-.567-2.656-5.461v-3.888h4.471v-7.317h-4.471V74.39h-8.943v3.049m73.983 0v3.049h-2.845v7.317h2.767l.141 5.589c.233 9.274 1.745 11.11 9.389 11.406l3.963.154v-7.8h-1.989c-2.448 0-2.483-.075-2.483-5.317v-4.032h4.472v-7.317h-4.472V74.39h-8.943v3.049m-124.593 3.184c-7.746 2.576-11.25 11.517-7.276 18.564 4.686 8.307 18.122 8.272 22.737-.059 5.618-10.143-4.432-22.172-15.461-18.505m33.226-.144c-.73.173-2.056.797-2.947 1.387l-1.621 1.072v-2.45h-8.943v24.39h8.943l.003-6.402c.002-6.97.368-9.096 1.73-10.049 1.327-.93 3.328-.776 4.647.358l1.141.98.127 7.557.126 7.556h8.893v-8.056c0-13.848-3.378-18.411-12.099-16.343m41.093.161c-7.314 2.401-10.639 11.181-6.947 18.344 4.79 9.291 19.911 8.148 22.857-1.728.41-1.375-8.484-1.418-10.335-.049-1.342.992-2.797.825-4.091-.469-1.885-1.884-1.398-2.023 7.124-2.023h7.927v-2.627c0-8.477-8.229-14.174-16.535-11.448m32.89-.184c-.729.186-2.056.82-2.947 1.41l-1.62 1.072v-2.45h-8.943v24.39h8.943v-6.72c0-8.63.643-10.353 3.862-10.353 3.219 0 3.862 1.723 3.862 10.353v6.72h8.943v-7.704c0-8.841-.375-11.174-2.172-13.517-2.156-2.813-6.259-4.136-9.928-3.201m79.378.277c-8.737 3.197-9.426 19.063-1.018 23.453 3.035 1.585 7.091 1.488 9.691-.233l1.691-1.119v2.044h8.943v-24.39h-8.943v2.088l-1.118-.779c-2.535-1.765-6.182-2.185-9.246-1.064m21.865.263c.113.279 1.218 2.886 2.457 5.793 1.238 2.906 3.355 7.897 4.705 11.09l2.454 5.806-1.052 2.324c-.579 1.278-1.843 4.108-2.809 6.288l-1.757 3.963 4.954-.008 4.954-.008 1.886-4.565c1.037-2.511 3.849-9.047 6.248-14.525 4.152-9.479 6.698-15.696 6.702-16.361 0-.168-2.175-.305-4.834-.305h-4.834l-1.728 5.172c-2.858 8.559-2.327 8.439-5.066 1.147l-2.374-6.319h-5.056c-3.883 0-5.008.118-4.85.508m-42.619 2.497c5.793 4.419 2.627 13.111-4.951 13.594l-2.549.162V82.025l2.985.151c2.529.127 3.219.329 4.515 1.317m-85.233 4.538c1.837 1.287 1.158 1.806-2.362 1.806-3.117 0-3.247-.036-2.841-.795.894-1.671 3.53-2.183 5.203-1.011m-74.376.692c1.14.946 1.795 2.863 1.592 4.662-.564 5.007-6.511 5.246-7.439.299-.737-3.93 3.133-7.214 5.847-4.961m188.071-.34c4.295 1.794 3.174 8.771-1.409 8.771-5.303 0-5.385-8.598-.089-9.333.064-.009.737.244 1.498.562"/></svg>