<svg width="48" height="60" viewBox="0 0 48 60" fill="none" xmlns="http://www.w3.org/2000/svg">
<g clip-path="url(#clip0_209_401)">
<path fill-rule="evenodd" clip-rule="evenodd" d="M29.0172 2H5.80344C2.61155 2 0.0290172 4.61155 0.0290172 7.80344L0 54.2309C0 57.4228 2.58253 60.0344 5.77442 60.0344H40.6241C43.816 60.0344 46.4275 57.4228 46.4275 54.2309V19.4103L29.0172 2ZM26.1155 22.312V6.35258L42.0749 22.312H26.1155Z" fill="#222222"/>
<path fill-rule="evenodd" clip-rule="evenodd" d="M22.4653 29.8297C22.7941 30.0026 23 30.3434 23 30.7148V46.7148C23 47.0718 22.8097 47.4018 22.5006 47.5805C22.1916 47.7592 21.8107 47.7597 21.5013 47.5816L14.4601 43.5302H12C11.4477 43.5302 11 43.0825 11 42.5302V35.72C11 35.1677 11.4477 34.72 12 34.72H14.4164L21.4331 29.8911C21.7391 29.6805 22.1366 29.6569 22.4653 29.8297ZM21 32.617L15.2942 36.5437C15.1274 36.6585 14.9297 36.72 14.7273 36.72H13V41.5302H14.7273C14.9023 41.5302 15.0743 41.5762 15.226 41.6635L21 44.9857V32.617Z" fill="#EBEBEB"/>
<path fill-rule="evenodd" clip-rule="evenodd" d="M27.1576 32.1762C27.4551 31.7109 28.0735 31.575 28.5388 31.8725C30.4628 33.103 31.7062 34.4841 32.3816 35.9384C33.0607 37.4005 33.1329 38.867 32.8279 40.1963C32.2333 42.7878 30.2006 44.889 28.3813 45.6394C27.8708 45.85 27.2862 45.6068 27.0756 45.0963C26.865 44.5857 27.1082 44.0011 27.6187 43.7905C28.858 43.2794 30.4336 41.6883 30.8786 39.749C31.0934 38.8129 31.0431 37.8044 30.5678 36.7809C30.0888 35.7496 29.1456 34.6346 27.4612 33.5574C26.996 33.2599 26.86 32.6415 27.1576 32.1762Z" fill="#EBEBEB"/>
</g>
<defs>
<clipPath id="clip0_209_401">
<rect width="48" height="60" fill="white"/>
</clipPath>
</defs>
</svg>
